<svg width="753" height="73" viewBox="0 0 753 73" fill="none" xmlns="http://www.w3.org/2000/svg">
<path d="M18.0433 59L21.3956 47.8636H40.6001L43.9524 59H60.9979L41.7933 0.81818H20.2024L0.997869 59H18.0433ZM24.9751 36.0455L30.7706 16.8409H31.2251L37.0206 36.0455H24.9751ZM102.454 59H122.283L98.8743 28.7727L121.033 0.81818H101.147L84.4425 22.75H82.397V0.81818H66.6016V59H82.397V35.4773H84.6129L102.454 59ZM186.978 47.0682H177.546V0.81818H162.092V46.8409H141.751V0.81818H126.523V59H171.637V72.75H186.296L186.978 47.0682ZM192.305 0.81818V59H205.487L226.509 28.4318H226.85V59H242.646V0.81818H229.237L208.555 31.2727H208.1V0.81818H192.305ZM250.117 0.81818V59H263.299L284.322 28.4318H284.663V59H300.458V0.81818H287.049L266.367 31.2727H265.913V0.81818H250.117ZM323.867 0.81818V59H337.049L358.072 28.4318H358.413V59H374.208V0.81818H360.799L340.117 31.2727H339.663V0.81818H323.867ZM451.935 22.6364C450.685 8.20455 440.117 0.0227251 425.458 0.0227251C409.776 0.0227251 397.39 10.4773 397.39 29.9091C397.39 49.2557 409.435 59.7955 425.458 59.7955C442.504 59.7955 451.14 47.9773 451.935 38.0909L435.913 37.9773C435.117 42.9489 431.594 46.0455 425.799 46.0455C418.1 46.0455 413.64 40.5909 413.64 29.9091C413.64 19.7955 417.958 13.7727 425.913 13.7727C431.992 13.7727 435.458 17.3523 435.913 22.6364H451.935ZM494.954 59H514.783L491.374 28.7727L513.533 0.81818H493.647L476.942 22.75H474.897V0.81818H459.102V59H474.897V35.4773H477.113L494.954 59ZM519.023 0.81818V59H532.205L553.228 28.4318H553.569V59H569.364V0.81818H555.955L535.273 31.2727H534.819V0.81818H519.023ZM574.904 72.9773H590.131V59H621.268V72.9773H636.495V46.8409H630.359V0.81818H589.222L587.29 25.4773C586.154 39.6818 583.086 44.3409 578.995 46.8409H574.904V72.9773ZM597.063 46.8409C599.563 42.5227 601.722 36.1591 602.518 25.4773L603.427 13.5455H615.131V46.8409H597.063ZM677.688 59H697.518L674.109 28.7727L696.268 0.81818H676.381L659.677 22.75H657.631V0.81818H641.836V59H657.631V35.4773H659.847L677.688 59ZM701.758 0.81818V59H714.94L735.962 28.4318H736.303V59H752.099V0.81818H738.69L718.008 31.2727H717.553V0.81818H701.758Z" fill="url(#paint0_linear)" fill-opacity="0.2"/>
<defs>
<linearGradient id="paint0_linear" x1="-167" y1="30" x2="922" y2="30" gradientUnits="userSpaceOnUse">
<stop stop-color="#E86AAD"/>
<stop offset="1" stop-color="#5CBAFE"/>
</linearGradient>
</defs>
</svg>
